# xmcd
#
# Track frame offsets:
#	150
#	18535
#	32325
#	64330
#	76075
#	101625
#	121415
#	135375
#	154650
#	182815
#	205690
#	233650
#	253245
#	275040
#	297055
#	324940
#
# Disc length: 4608
#
# Revision: 1
# Processed by: cddbd v1.5.1PL0 Copyright (c) Steve Scherf et al.
# Submitted via: Feurio! 1.65 - http://www.feurio.com
# Normalized: r0:DSETVAR1
#
DISCID=d711fe10
DTITLE=Various Artist - Iceman Smooth Love Vol. 1
DYEAR=1900
DGENRE=blues
TTITLE0=Alexander O'Neal - Sunshine
TTITLE1=Artistics - Make My Life Over
TTITLE2=Ashford and Simpson - So So Satisfied
TTITLE3=Spellbinders - For You
TTITLE4=Atlantic Starr - Am I Dreaming
TTITLE5=Blue Magic - Spell
TTITLE6=Smokey Robinson and Miracles - Swept For You
TTITLE7=Blue Magic - Teach Me (Something About Love)
TTITLE8=Sharon Riddley - Stay Awhile With Me
TTITLE9=Brownstone - Sometimes Dancing
TTITLE10=Chic - Warm Summer Night
TTITLE11=Spinners - No One Like You
TTITLE12=Choice 4 - Young And In Love
TTITLE13=Stylistics - United
TTITLE14=ConFunkShun - Love On Your Mind
TTITLE15=Temptations - Special
EXTD=
EXTT0=
EXTT1=
EXTT2=
EXTT3=
EXTT4=
EXTT5=
EXTT6=
EXTT7=
EXTT8=
EXTT9=
EXTT10=
EXTT11=
EXTT12=
EXTT13=
EXTT14=
EXTT15=
PLAYORDER=
